<svg xmlns="http://www.w3.org/2000/svg" xmlns:xlink="http://www.w3.org/1999/xlink" viewBox="0,0,256,256" width="240px" height="240px" fill-rule="evenodd"><g fill="#ffffff" fill-rule="evenodd" stroke="none" stroke-width="1" stroke-linecap="butt" stroke-linejoin="miter" stroke-miterlimit="10" stroke-dasharray="" stroke-dashoffset="0" font-family="none" font-weight="none" font-size="none" text-anchor="none" style="mix-blend-mode: normal"><g transform="scale(5.33333,5.33333)"><path d="M8,16v12.646c-1.345,0.254 -2.051,0.354 -3.122,0.354c-3.208,-0.003 -4.878,-1.435 -4.878,-4.184c0,-2.649 1.771,-4.368 4.516,-4.368c0.426,0 0.75,0.033 1.143,0.134v-4.582zM5.659,22.672c-0.308,-0.1 -0.561,-0.134 -0.886,-0.134c-1.328,0 -2.096,0.809 -2.096,2.228c0,1.381 0.734,2.143 2.079,2.143c0.291,0 0.527,-0.016 0.903,-0.067v-4.17z"></path><path d="M12,20.046v6.618c0,2.076 -0.155,3.224 -0.612,4.084c-0.426,0.827 -0.987,1.349 -2.146,1.925l-2.437,-1.149c1.159,-0.539 1.721,-1.015 2.079,-1.742c0.375,-0.743 0.494,-1.754 0.494,-4.017v-5.721h2.622z"></path><rect x="9.377" y="16" width="2.623" height="2.713"></rect><path d="M13.734,20.876c1.136,-0.552 2.223,-0.795 3.408,-0.795c1.321,0 2.189,0.363 2.573,1.073c0.215,0.397 0.285,0.914 0.285,2.021v5.407c-1.152,0.171 -2.606,0.294 -3.673,0.294c-2.156,0 -3.123,-0.778 -3.123,-2.505c0,-1.868 1.285,-2.731 4.441,-3.006v-0.585c0,-0.483 -0.235,-0.658 -0.884,-0.658c-0.95,0 -2.02,0.278 -3.024,0.812zM17.761,25.107c-1.702,0.171 -2.255,0.449 -2.255,1.141c0,0.518 0.318,0.761 1.02,0.761c0.384,0 0.735,-0.034 1.235,-0.12v-1.782z"></path><path d="M21.418,20.693c1.52,-0.421 2.772,-0.613 4.041,-0.613c1.318,0 2.273,0.317 2.839,0.93c0.532,0.578 0.702,1.212 0.702,2.563v5.303h-2.574v-5.195c0,-1.038 -0.335,-1.424 -1.252,-1.424c-0.351,0 -0.669,0.035 -1.186,0.195v6.425h-2.57z"></path><path d="M30.177,30.006c0.919,0.486 1.839,0.71 2.812,0.71c1.721,0 2.454,-0.473 2.454,-2.176v-0.052c-0.51,0.258 -1.025,0.366 -1.704,0.366c-2.302,0 -3.739,-1.547 -3.739,-3.997c0,-3.043 2.141,-4.762 5.974,-4.762c1.126,0 2.167,0.121 3.427,0.383l-0.899,1.93c-0.699,-0.138 -0.057,-0.021 -0.584,-0.072v0.279l0.034,1.13l0.017,1.461c0.017,0.366 0.017,0.73 0.034,1.096v0.73c0,2.295 -0.19,3.131 -0.751,4.02c-0.818,1.302 -2.234,1.947 -4.246,1.947c-1.024,0 -1.91,-0.155 -2.829,-0.521v-2.472zM35.392,22.251h-0.085h-0.19c-0.51,-0.017 -1.108,0.121 -1.518,0.383c-0.628,0.365 -0.953,1.027 -0.953,1.964c0,1.337 0.649,2.102 1.808,2.102c0.358,0 0.649,-0.069 0.987,-0.172v-0.193v-0.73c0,-0.314 -0.017,-0.662 -0.017,-1.027l-0.017,-1.234l-0.017,-0.886v-0.207z"></path><path d="M43.566,20.046c2.753,0 4.434,1.66 4.434,4.348c0,2.756 -1.752,4.483 -4.544,4.483c-2.756,0 -4.456,-1.659 -4.456,-4.33c0.005,-2.773 1.757,-4.501 4.566,-4.501zM43.509,26.752c1.057,0 1.681,-0.838 1.681,-2.294c0,-1.439 -0.607,-2.294 -1.663,-2.294c-1.093,0 -1.718,0.838 -1.718,2.294c0.001,1.456 0.629,2.294 1.7,2.294z"></path></g></g></svg>